<?xml version="1.0" encoding="UTF-8" standalone="no"?> <svg width="64" height="64" viewBox="0 0 64 64" fill="none" xmlns="http://www.w3.org/2000/svg">
<path d="M57.39 13.6901L48.84 3.36005C48.7561 3.25879 48.653 3.17509 48.5367 3.11374C48.4203 3.05239 48.293 3.01459 48.162 3.00251C48.031 2.99044 47.899 3.00432 47.7734 3.04336C47.6478 3.08241 47.5311 3.14585 47.43 3.23005L40.74 8.77005C40.5385 8.93933 40.4118 9.18126 40.3875 9.44335C40.3631 9.70544 40.4431 9.96655 40.61 10.1701L49.16 20.5001C49.244 20.6013 49.3471 20.685 49.4634 20.7464C49.5798 20.8077 49.7071 20.8455 49.8381 20.8576C49.9691 20.8697 50.1011 20.8558 50.2267 20.8167C50.3523 20.7777 50.469 20.7143 50.57 20.6301L57.25 15.1001C57.352 15.0168 57.4366 14.9143 57.4988 14.7983C57.5611 14.6823 57.5999 14.5551 57.6129 14.4241C57.6259 14.2931 57.6129 14.1608 57.5746 14.0349C57.5364 13.9089 57.4737 13.7917 57.39 13.6901V13.6901Z" fill="#B3B3B3"/>
<path d="M52.66 22C52.6339 21.8168 52.5654 21.6422 52.46 21.49C52.46 21.49 40 6.26004 39.92 6.25004C39.7257 6.0538 39.4657 5.93628 39.19 5.92004H13.7C11.7612 5.92268 9.90234 6.69337 8.53043 8.0634C7.15852 9.43344 6.38529 11.2912 6.38 13.23V53.69C6.38529 55.6289 7.15852 57.4866 8.53043 58.8567C9.90234 60.2267 11.7612 60.9974 13.7 61H45.37C47.3097 61 49.17 60.2302 50.5425 58.8596C51.915 57.489 52.6874 55.6297 52.69 53.69C52.65 53.53 52.75 22.1 52.66 22ZM35.23 16.51C35.2287 17.0642 35.1182 17.6127 34.905 18.1242C34.6917 18.6357 34.3797 19.1002 33.9869 19.4911C33.5941 19.882 33.1282 20.1918 32.6157 20.4026C32.1032 20.6135 31.5542 20.7214 31 20.72H15.68C14.5643 20.7174 13.495 20.273 12.706 19.484C11.917 18.6951 11.4726 17.6258 11.47 16.51V14.31C11.47 13.7572 11.5789 13.2097 11.7905 12.6989C12.002 12.1882 12.3122 11.7241 12.7031 11.3331C13.4926 10.5436 14.5634 10.1 15.68 10.1H31C31.5529 10.1 32.1003 10.2089 32.6111 10.4205C33.1219 10.6321 33.586 10.9422 33.9769 11.3331C34.3679 11.7241 34.678 12.1882 34.8895 12.6989C35.1011 13.2097 35.21 13.7572 35.21 14.31L35.23 16.51Z" fill="#999999"/>
<path d="M26.7955 31.8986L19.5477 39.1464C17.7161 40.978 17.7161 43.9475 19.5477 45.7791L26.7955 53.0269C28.6271 54.8585 31.5966 54.8585 33.4282 53.0269L40.676 45.7791C42.5076 43.9475 42.5076 40.978 40.676 39.1464L33.4282 31.8986C31.5966 30.067 28.6271 30.067 26.7955 31.8986Z" fill="#FCEE21"/>
<path d="M31 35.71C30.9121 35.5585 30.7859 35.4327 30.6341 35.3453C30.4823 35.2578 30.3102 35.2118 30.135 35.2118C29.9598 35.2118 29.7877 35.2578 29.6359 35.3453C29.4841 35.4327 29.3579 35.5585 29.27 35.71C28.72 36.65 25.99 41.44 25.99 43.35C25.99 44.448 26.4262 45.501 27.2026 46.2774C27.979 47.0538 29.032 47.49 30.13 47.49C31.228 47.49 32.281 47.0538 33.0574 46.2774C33.8338 45.501 34.27 44.448 34.27 43.35C34.25 41.44 31.52 36.65 31 35.71Z" fill="#0071BC"/>
</svg>
