<?xml version="1.0" encoding="UTF-8" standalone="no"?> <svg id="Layer_1" data-name="Layer 1" xmlns="http://www.w3.org/2000/svg" viewBox="0 0 128 128"><defs><style>.cls-1{fill:#2d3e50;}.cls-2{fill:#1d75b8;}</style></defs><title>v</title><path class="cls-1" d="M116.27431,83.20608,101.41059,77.247h-.45216L76.90859,62.62508A34.35926,34.35926,0,0,0,59.05714,57.6245H36.28205A14.91905,14.91905,0,0,0,25.73,62.03568L10.717,77.247h-.02052l-.05764.07919-.782.7924.12134.11973C8.604,80.14468,6.42168,83.23387,4.16759,86.72655a10.79181,10.79181,0,0,0-1.72908,5.858V106.354a2.51855,2.51855,0,0,0,2.51784,2.5178H16.43657a12.98182,12.98182,0,0,0,25.33876,0h45.1275a12.98032,12.98032,0,0,0,25.33871,0h10.80221a2.51853,2.51853,0,0,0,2.51775-2.5178V94.36887A11.35212,11.35212,0,0,0,116.27431,83.20608ZM29.10478,113.99155a7.94166,7.94166,0,1,1,7.94278-7.94292A7.94145,7.94145,0,0,1,29.10478,113.99155ZM49.28036,77.247H17.81266L29.32448,65.583a9.83648,9.83648,0,0,1,6.95757-2.90854H49.28036Zm37.05578,0H53.84929V62.6745h5.20784A29.30736,29.30736,0,0,1,74.285,66.94023l12.05116,7.3269Zm13.23727,36.74454a7.94175,7.94175,0,0,1-.3415-15.87609c.113-.00485.226-.00723.3415-.00723a7.94166,7.94166,0,1,1,0,15.88332Z"/><path class="cls-2" d="M103.09191,8.9729l-22.48305,4.932V38.84723a17.058,17.058,0,0,0,4.66321,11.77238A65.81783,65.81783,0,0,0,102.04367,63.494l0,0a2.21093,2.21093,0,0,0,2.09634,0,65.98488,65.98488,0,0,0,16.75823-12.8744,17.058,17.058,0,0,0,4.66321-11.77238V13.90492Z"/></svg>