<?xml version="1.0" encoding="UTF-8" standalone="no"?> <svg width="64" height="64" viewBox="0 0 64 64" fill="none" xmlns="http://www.w3.org/2000/svg">
<path d="M37.4 10.02H12.72V19.38H37.4V10.02Z" fill="black"/>
<path d="M60 16.48H59.21V14.19C59.21 13.9248 59.1046 13.6704 58.9171 13.4829C58.7296 13.2954 58.4752 13.19 58.21 13.19C57.9448 13.19 57.6904 13.2954 57.5029 13.4829C57.3154 13.6704 57.21 13.9248 57.21 14.19V16.48H56.63V14.19C56.63 13.9248 56.5246 13.6704 56.3371 13.4829C56.1496 13.2954 55.8952 13.19 55.63 13.19C55.3648 13.19 55.1104 13.2954 54.9229 13.4829C54.7354 13.6704 54.63 13.9248 54.63 14.19V16.48H53.83C53.5648 16.48 53.3104 16.5854 53.1229 16.7729C52.9354 16.9604 52.83 17.2148 52.83 17.48V20.57C52.8366 21.488 53.1534 22.3768 53.7288 23.0921C54.3043 23.8073 55.1047 24.307 56 24.51V55.51C56 55.8097 55.8809 56.0971 55.669 56.309C55.4571 56.521 55.1697 56.64 54.87 56.64C54.5703 56.64 54.2829 56.521 54.071 56.309C53.8591 56.0971 53.74 55.8097 53.74 55.51V36.66C53.7367 34.8332 53.0712 33.0695 51.8668 31.6959C50.6624 30.3223 49.0008 29.432 47.19 29.19V25.25C47.19 24.9848 47.0846 24.7304 46.8971 24.5429C46.7096 24.3554 46.4552 24.25 46.19 24.25H43.79V8.38C43.79 7.7234 43.6607 7.07322 43.4094 6.46659C43.1581 5.85996 42.7898 5.30876 42.3255 4.84447C41.8612 4.38018 41.31 4.01188 40.7034 3.76061C40.0968 3.50933 39.4466 3.38 38.79 3.38H11.34C10.0139 3.38 8.74215 3.90679 7.80447 4.84447C6.86678 5.78215 6.34 7.05392 6.34 8.38V24.25H4C3.73478 24.25 3.48043 24.3554 3.29289 24.5429C3.10536 24.7304 3 24.9848 3 25.25V35C3 35.2652 3.10536 35.5196 3.29289 35.7071C3.48043 35.8946 3.73478 36 4 36H6.32V55.56H4.32C4.05478 55.56 3.80043 55.6654 3.61289 55.8529C3.42536 56.0404 3.32 56.2948 3.32 56.56V59.64C3.32 59.9052 3.42536 60.1596 3.61289 60.3471C3.80043 60.5346 4.05478 60.64 4.32 60.64H45.81C46.0752 60.64 46.3296 60.5346 46.5171 60.3471C46.7046 60.1596 46.81 59.9052 46.81 59.64V56.56C46.81 56.2948 46.7046 56.0404 46.5171 55.8529C46.3296 55.6654 46.0752 55.56 45.81 55.56H43.81V36H46.17C46.4352 36 46.6896 35.8946 46.8771 35.7071C47.0646 35.5196 47.17 35.2652 47.17 35V31.21C48.4457 31.4437 49.5993 32.1167 50.4304 33.1123C51.2616 34.1079 51.7179 35.3631 51.72 36.66V55.48C51.72 56.3101 52.0498 57.1063 52.6368 57.6932C53.2237 58.2802 54.0199 58.61 54.85 58.61C55.6801 58.61 56.4763 58.2802 57.0632 57.6932C57.6502 57.1063 57.98 56.3101 57.98 55.48V24.48C58.8434 24.2512 59.6072 23.7441 60.1532 23.0372C60.6992 22.3304 60.9968 21.4632 61 20.57V17.48C61 17.2148 60.8946 16.9604 60.7071 16.7729C60.5196 16.5854 60.2652 16.48 60 16.48ZM44.81 58.64H5.3V57.56H44.81V58.64ZM10.72 9C10.72 8.73479 10.8254 8.48043 11.0129 8.2929C11.2004 8.10536 11.4548 8 11.72 8H38.39C38.6552 8 38.9096 8.10536 39.0971 8.2929C39.2846 8.48043 39.39 8.73479 39.39 9V20.38C39.39 20.6452 39.2846 20.8996 39.0971 21.0871C38.9096 21.2746 38.6552 21.38 38.39 21.38H11.72C11.4548 21.38 11.2004 21.2746 11.0129 21.0871C10.8254 20.8996 10.72 20.6452 10.72 20.38V9ZM28.46 41.25C28.6647 41.2462 28.8657 41.3052 29.0357 41.4193C29.2058 41.5333 29.3367 41.6968 29.4109 41.8876C29.485 42.0785 29.4988 42.2875 29.4504 42.4864C29.4019 42.6854 29.2936 42.8646 29.14 43L22.48 49.26C22.2864 49.4417 22.0285 49.539 21.7632 49.5306C21.4978 49.5221 21.2467 49.4086 21.065 49.215C20.8833 49.0214 20.786 48.7635 20.7944 48.4982C20.8029 48.2328 20.9164 47.9817 21.11 47.8L25.93 43.27H21.65C21.4456 43.27 21.246 43.2074 21.0783 43.0905C20.9106 42.9737 20.7827 42.8082 20.7119 42.6165C20.641 42.4247 20.6307 42.2158 20.6822 42.018C20.7337 41.8202 20.8446 41.6429 21 41.51L27.81 35.25C28.0078 35.0906 28.2589 35.0124 28.5122 35.0314C28.7656 35.0503 29.0022 35.165 29.1741 35.3522C29.3459 35.5393 29.4401 35.7848 29.4375 36.0389C29.4349 36.2929 29.3357 36.5365 29.16 36.72L24.24 41.25H28.46ZM17.62 30.19C17.3548 30.19 17.1004 30.0846 16.9129 29.8971C16.7254 29.7096 16.62 29.4552 16.62 29.19C16.62 28.9248 16.7254 28.6704 16.9129 28.4829C17.1004 28.2954 17.3548 28.19 17.62 28.19H32.49C32.7552 28.19 33.0096 28.2954 33.1971 28.4829C33.3846 28.6704 33.49 28.9248 33.49 29.19C33.49 29.4552 33.3846 29.7096 33.1971 29.8971C33.0096 30.0846 32.7552 30.19 32.49 30.19H17.62ZM32.49 26.25H17.62C17.3548 26.25 17.1004 26.1446 16.9129 25.9571C16.7254 25.7696 16.62 25.5152 16.62 25.25C16.62 24.9848 16.7254 24.7304 16.9129 24.5429C17.1004 24.3554 17.3548 24.25 17.62 24.25H32.49C32.7552 24.25 33.0096 24.3554 33.1971 24.5429C33.3846 24.7304 33.49 24.9848 33.49 25.25C33.49 25.5152 33.3846 25.7696 33.1971 25.9571C33.0096 26.1446 32.7552 26.25 32.49 26.25ZM5 34V26.25H6.32V34H5ZM45.19 34H43.79V26.25H45.15L45.19 34Z" fill="black"/>
</svg>
