<?xml version="1.0" encoding="UTF-8" standalone="no"?> <svg width="64" height="64" viewBox="0 0 64 64" fill="none" xmlns="http://www.w3.org/2000/svg">
<path d="M14.01 59.8602H50.86L53.14 57.9102V8.80022L50.61 6.72021H41.99V9.30022H22.02V6.72021H14.01L10.99 8.45021V57.7902L14.01 59.8602Z" fill="#78B9EB"/>
<path d="M50.3501 5.73H42.9201V4C42.9201 3.73478 42.8147 3.48043 42.6272 3.29289C42.4397 3.10536 42.1853 3 41.9201 3H22.0801C21.8149 3 21.5605 3.10536 21.373 3.29289C21.1855 3.48043 21.0801 3.73478 21.0801 4V5.73H13.6501C12.7262 5.71663 11.8347 6.0702 11.171 6.7132C10.5074 7.35619 10.1259 8.23611 10.1101 9.16V57.57C10.1259 58.4939 10.5074 59.3738 11.171 60.0168C11.8347 60.6598 12.7262 61.0134 13.6501 61H50.3501C51.274 61.0134 52.1656 60.6598 52.8292 60.0168C53.4928 59.3738 53.8743 58.4939 53.8901 57.57V9.16C53.8743 8.23611 53.4928 7.35619 52.8292 6.7132C52.1656 6.0702 51.274 5.71663 50.3501 5.73ZM23.0801 5H40.9201V8.45H23.0801V5ZM51.8901 57.57C51.8745 57.9635 51.7037 58.3348 51.4152 58.6027C51.1266 58.8707 50.7437 59.0135 50.3501 59H13.6501C13.2565 59.0135 12.8736 58.8707 12.5851 58.6027C12.2965 58.3348 12.1257 57.9635 12.1101 57.57V9.16C12.1257 8.76652 12.2965 8.39522 12.5851 8.12726C12.8736 7.8593 13.2565 7.71648 13.6501 7.73H21.0801V9.45C21.0801 9.71522 21.1855 9.96957 21.373 10.1571C21.5605 10.3446 21.8149 10.45 22.0801 10.45H41.9201C42.1853 10.45 42.4397 10.3446 42.6272 10.1571C42.8147 9.96957 42.9201 9.71522 42.9201 9.45V7.73H50.3501C50.7437 7.71648 51.1266 7.8593 51.4152 8.12726C51.7037 8.39522 51.8745 8.76652 51.8901 9.16V57.57Z" fill="#006DF0"/>
<path d="M27.8201 21.73H31.0001V24.91C31.0001 25.1753 31.1054 25.4296 31.293 25.6171C31.4805 25.8047 31.7349 25.91 32.0001 25.91C32.2653 25.91 32.5196 25.8047 32.7072 25.6171C32.8947 25.4296 33.0001 25.1753 33.0001 24.91V21.73H36.1801C36.4453 21.73 36.6996 21.6247 36.8872 21.4371C37.0747 21.2496 37.1801 20.9953 37.1801 20.73C37.1801 20.4648 37.0747 20.2105 36.8872 20.0229C36.6996 19.8354 36.4453 19.73 36.1801 19.73H33.0001V16.54C33.0001 16.2748 32.8947 16.0205 32.7072 15.8329C32.5196 15.6454 32.2653 15.54 32.0001 15.54C31.7349 15.54 31.4805 15.6454 31.293 15.8329C31.1054 16.0205 31.0001 16.2748 31.0001 16.54V19.73H27.8201C27.5549 19.73 27.3005 19.8354 27.113 20.0229C26.9254 20.2105 26.8201 20.4648 26.8201 20.73C26.8201 20.9953 26.9254 21.2496 27.113 21.4371C27.3005 21.6247 27.5549 21.73 27.8201 21.73Z" fill="#006DF0"/>
<path d="M16.8601 33H32.0001C32.2653 33 32.5197 32.8946 32.7072 32.7071C32.8948 32.5196 33.0001 32.2652 33.0001 32C33.0001 31.7348 32.8948 31.4804 32.7072 31.2929C32.5197 31.1054 32.2653 31 32.0001 31H16.8601C16.5949 31 16.3405 31.1054 16.153 31.2929C15.9655 31.4804 15.8601 31.7348 15.8601 32C15.8601 32.2652 15.9655 32.5196 16.153 32.7071C16.3405 32.8946 16.5949 33 16.8601 33Z" fill="#006DF0"/>
<path d="M47.1401 37.3501H16.8601C16.5949 37.3501 16.3405 37.4555 16.153 37.643C15.9655 37.8305 15.8601 38.0849 15.8601 38.3501C15.8601 38.6153 15.9655 38.8697 16.153 39.0572C16.3405 39.2447 16.5949 39.3501 16.8601 39.3501H47.1401C47.4053 39.3501 47.6597 39.2447 47.8472 39.0572C48.0348 38.8697 48.1401 38.6153 48.1401 38.3501C48.1401 38.0849 48.0348 37.8305 47.8472 37.643C47.6597 37.4555 47.4053 37.3501 47.1401 37.3501Z" fill="#006DF0"/>
<path d="M47.1401 43.7002H16.8601C16.5949 43.7002 16.3405 43.8056 16.153 43.9931C15.9655 44.1806 15.8601 44.435 15.8601 44.7002C15.8601 44.9654 15.9655 45.2198 16.153 45.4073C16.3405 45.5948 16.5949 45.7002 16.8601 45.7002H47.1401C47.4053 45.7002 47.6597 45.5948 47.8472 45.4073C48.0348 45.2198 48.1401 44.9654 48.1401 44.7002C48.1401 44.435 48.0348 44.1806 47.8472 43.9931C47.6597 43.8056 47.4053 43.7002 47.1401 43.7002Z" fill="#006DF0"/>
<path d="M47.1401 50.0601H16.8601C16.5949 50.0601 16.3405 50.1654 16.153 50.353C15.9655 50.5405 15.8601 50.7948 15.8601 51.0601C15.8601 51.3253 15.9655 51.5796 16.153 51.7672C16.3405 51.9547 16.5949 52.0601 16.8601 52.0601H47.1401C47.4053 52.0601 47.6597 51.9547 47.8472 51.7672C48.0348 51.5796 48.1401 51.3253 48.1401 51.0601C48.1401 50.7948 48.0348 50.5405 47.8472 50.353C47.6597 50.1654 47.4053 50.0601 47.1401 50.0601Z" fill="#006DF0"/>
</svg>
