<?xml version="1.0" encoding="UTF-8" standalone="no"?>
<svg
   xmlns:dc="http://purl.org/dc/elements/1.1/"
   xmlns:cc="http://creativecommons.org/ns#"
   xmlns:rdf="http://www.w3.org/1999/02/22-rdf-syntax-ns#"
   xmlns:svg="http://www.w3.org/2000/svg"
   xmlns="http://www.w3.org/2000/svg"
   id="svg5088"
   version="1.1"
   viewBox="0 0 21.922421 21.681855"
   height="21.681856mm"
   width="21.922422mm">
  <defs
     id="defs5082">
    <clipPath
       id="clipPath26"
       clipPathUnits="userSpaceOnUse">
      <path
         id="path24"
         d="m 46.87,357.72 h 57.62 v -61.3 H 46.87 Z" />
    </clipPath>
    <clipPath
       id="clipPath68"
       clipPathUnits="userSpaceOnUse">
      <path
         id="path66"
         d="m 134.76,353.97 h 53.44 v -53.8 h -53.44 z" />
    </clipPath>
    <clipPath
       id="clipPath92"
       clipPathUnits="userSpaceOnUse">
      <path
         id="path90"
         d="m 223.45,354.72 h 47.18 v -55.29 h -47.18 z" />
    </clipPath>
    <clipPath
       id="clipPath340"
       clipPathUnits="userSpaceOnUse">
      <path
         id="path338"
         d="m 297.63,333.83 h 56.08 V 295.5 h -56.08 z" />
    </clipPath>
    <clipPath
       id="clipPath220"
       clipPathUnits="userSpaceOnUse">
      <path
         id="path218"
         d="M 378.05,353.71 H 427.8 V 300.43 H 378.05 Z" />
    </clipPath>
    <clipPath
       id="clipPath1224"
       clipPathUnits="userSpaceOnUse">
      <path
         id="path1222"
         d="m 450.12,353.2 h 52.25 v -52.25 h -52.25 z" />
    </clipPath>
    <clipPath
       id="clipPath904"
       clipPathUnits="userSpaceOnUse">
      <path
         id="path902"
         d="m 520.935,347.63 h 55.64 v -41.12 h -55.64 z" />
    </clipPath>
    <clipPath
       id="clipPath1512"
       clipPathUnits="userSpaceOnUse">
      <path
         id="path1510"
         d="m 590.789,353.968 h 54.478 v -53.795 h -54.478 z" />
    </clipPath>
  </defs>
  <metadata
     id="metadata5085">
    <rdf:RDF>
      <cc:Work
         rdf:about="">
        <dc:format>image/svg+xml</dc:format>
        <dc:type
           rdf:resource="http://purl.org/dc/dcmitype/StillImage" />
        <dc:title></dc:title>
      </cc:Work>
    </rdf:RDF>
  </metadata>
  <g
     transform="translate(-54.555227,-85.258993)"
     id="layer1">
    <g
       id="g6768"
       transform="matrix(0.35277777,0,0,-0.35277777,-152.51082,211.48241)">
      <g
         id="g1506">
        <g
           id="g1508" />
        <g
           id="g1528">
          <g
             clip-path="url(#clipPath1512)"
             id="g1526">
            <g
               transform="translate(628.46,312.2798)"
               id="g1516">
              <path
                 d="m 0,0 c 3,0.4 5.1,3.15 4.7,6.15 -0.4,3 -3.16,5.1 -6.15,4.7 -3,-0.4 -5.1,-3.16 -4.7,-6.15 C -5.75,1.7 -3,-0.4 0,0 M 16.8,5.34 C 16.86,4.9 16.55,4.5 16.11,4.44 L 12.521,3.28 C 12.21,3.24 11.95,3.05 11.81,2.79 11.62,1.89 11.34,1.03 10.97,0.2 c 0.06,-0.11 0.14,-0.21 0.25,-0.29 l 2.551,-2.8 C 14.12,-3.15 14.18,-3.65 13.92,-4 L 11.6,-7.03 C 11.34,-7.38 10.84,-7.45 10.49,-7.18 L 7.12,-5.46 C 6.87,-5.27 6.56,-5.22 6.28,-5.31 5.521,-5.8 4.71,-6.21 3.85,-6.54 3.82,-6.66 3.8,-6.79 3.82,-6.92 L 3.65,-10.7 C 3.7,-11.14 3.4,-11.54 2.96,-11.59 l -3.77,-0.51 c -0.44,-0.06 -0.84,0.25 -0.9,0.68 l -1.16,3.6 c -0.04,0.31 -0.23,0.56 -0.49,0.71 -0.9,0.18 -1.76,0.47 -2.59,0.84 -0.11,-0.07 -0.21,-0.15 -0.29,-0.25 l -2.8,-2.55 C -9.3,-9.42 -9.8,-9.49 -10.15,-9.22 l -3.03,2.31 c -0.35,0.27 -0.42,0.77 -0.15,1.12 l 1.72,3.37 c 0.19,0.24 0.24,0.56 0.15,0.84 -0.49,0.76 -0.9,1.57 -1.23,2.43 -0.12,0.03 -0.25,0.04 -0.38,0.03 l -3.78,0.17 c -0.44,-0.06 -0.84,0.25 -0.89,0.68 l -0.51,3.78 c -0.06,0.44 0.25,0.84 0.68,0.9 l 3.6,1.16 c 0.31,0.04 0.56,0.23 0.71,0.49 0.18,0.9 0.47,1.76 0.84,2.59 -0.07,0.11 -0.15,0.21 -0.25,0.29 l -2.55,2.79 c -0.35,0.27 -0.42,0.77 -0.15,1.12 l 2.31,3.03 c 0.27,0.35 0.77,0.41 1.12,0.15 l 3.37,-1.73 c 0.24,-0.18 0.56,-0.23 0.841,-0.15 0.75,0.5 1.569,0.91 2.419,1.24 0.04,0.12 0.05,0.25 0.04,0.38 l 0.17,3.78 c -0.06,0.43 0.25,0.83 0.68,0.89 l 3.78,0.51 c 0.44,0.06 0.84,-0.25 0.9,-0.69 l 1.16,-3.59 c 0.04,-0.31 0.23,-0.57 0.49,-0.71 0.9,-0.19 1.76,-0.47 2.59,-0.84 0.11,0.06 0.21,0.15 0.29,0.25 l 2.79,2.55 c 0.27,0.35 0.77,0.41 1.12,0.15 l 3.03,-2.32 c 0.35,-0.26 0.41,-0.76 0.15,-1.11 L 10.15,13.27 C 9.97,13.02 9.92,12.71 10,12.43 10.5,11.67 10.91,10.86 11.24,10 11.36,9.97 11.49,9.95 11.62,9.97 L 15.4,9.8 c 0.43,0.05 0.83,-0.25 0.89,-0.69 z"
                 style="fill:#6c9814;fill-opacity:1;fill-rule:nonzero;stroke:none"
                 id="path1514" />
            </g>
            <g
               transform="translate(610.0801,337.2002)"
               id="g1520">
              <path
                 d="M 0,0 C 2.16,0.53 3.49,2.71 2.96,4.87 2.43,7.04 0.25,8.36 -1.92,7.83 -4.08,7.3 -5.4,5.12 -4.87,2.96 -4.34,0.79 -2.16,-0.53 0,0 M 11.88,5.23 C 11.96,4.91 11.77,4.59 11.45,4.52 L 8.91,3.38 C 8.689,3.33 8.52,3.17 8.43,2.97 8.36,2.3 8.229,1.64 8.02,1.01 8.07,0.93 8.14,0.86 8.229,0.81 l 2.081,-1.84 c 0.28,-0.17 0.36,-0.53 0.2,-0.81 L 9.05,-4.24 C 8.88,-4.51 8.52,-4.6 8.25,-4.43 l -2.6,0.99 C 5.45,-3.32 5.21,-3.31 5.01,-3.39 4.5,-3.81 3.939,-4.18 3.34,-4.49 3.32,-4.58 3.32,-4.68 3.34,-4.77 L 3.51,-7.55 C 3.59,-7.87 3.4,-8.18 3.08,-8.26 L 0.36,-8.93 C 0.04,-9 -0.28,-8.81 -0.35,-8.5 l -1.14,2.55 c -0.05,0.22 -0.21,0.39 -0.41,0.47 -0.67,0.07 -1.33,0.21 -1.96,0.42 -0.08,-0.06 -0.15,-0.12 -0.201,-0.21 L -5.9,-7.35 c -0.17,-0.28 -0.53,-0.37 -0.81,-0.2 l -2.4,1.46 c -0.28,0.16 -0.36,0.52 -0.201,0.8 l 1,2.6 c 0.121,0.2 0.131,0.43 0.04,0.63 -0.419,0.52 -0.779,1.08 -1.089,1.68 -0.09,0.02 -0.19,0.02 -0.28,-0.01 l -2.78,-0.16 c -0.32,-0.08 -0.63,0.11 -0.71,0.43 L -13.8,2.6 c -0.07,0.32 0.12,0.63 0.43,0.71 l 2.55,1.13 c 0.22,0.06 0.39,0.22 0.47,0.42 0.07,0.67 0.21,1.33 0.42,1.96 -0.06,0.08 -0.131,0.14 -0.21,0.2 l -2.08,1.84 c -0.28,0.17 -0.37,0.53 -0.2,0.81 l 1.46,2.4 c 0.16,0.27 0.52,0.36 0.8,0.19 l 2.599,-0.99 c 0.201,-0.12 0.431,-0.13 0.631,-0.05 0.52,0.42 1.08,0.79 1.68,1.1 0.02,0.09 0.02,0.18 -0.01,0.28 l -0.17,2.78 c -0.07,0.31 0.119,0.63 0.44,0.71 l 2.719,0.66 c 0.321,0.08 0.631,-0.11 0.71,-0.43 l 1.131,-2.54 c 0.06,-0.22 0.22,-0.39 0.42,-0.48 0.67,-0.06 1.33,-0.2 1.96,-0.41 0.08,0.05 0.14,0.12 0.19,0.21 l 1.85,2.08 c 0.17,0.28 0.53,0.37 0.81,0.2 L 7.189,13.92 C 7.47,13.75 7.56,13.39 7.39,13.12 L 6.4,10.52 C 6.28,10.32 6.27,10.09 6.35,9.88 6.77,9.37 7.14,8.81 7.45,8.21 7.54,8.19 7.63,8.19 7.729,8.21 l 2.781,0.17 c 0.31,0.08 0.63,-0.11 0.71,-0.43 z"
                 style="fill:#ffbb00;fill-opacity:1;fill-rule:nonzero;stroke:none"
                 id="path1518" />
            </g>
            <g
               transform="translate(600.5596,317.4902)"
               id="g1524">
              <path
                 d="M 0,0 C 1.53,0.38 2.46,1.92 2.091,3.45 1.71,4.98 0.171,5.91 -1.359,5.54 -2.89,5.17 -3.819,3.62 -3.449,2.09 -3.079,0.56 -1.529,-0.37 0,0 m -8.79,-0.39 c -0.22,-0.05 -0.439,0.08 -0.5,0.31 l -0.47,1.92 c -0.05,0.23 0.08,0.45 0.311,0.5 l 1.79,0.81 c 0.159,0.04 0.279,0.15 0.34,0.29 0.049,0.47 0.149,0.94 0.29,1.39 -0.031,0.05 -0.08,0.1 -0.141,0.13 l -1.47,1.31 c -0.2,0.12 -0.259,0.37 -0.139,0.57 l 1.019,1.69 c 0.12,0.2 0.38,0.26 0.571,0.14 l 1.839,-0.7 c 0.14,-0.08 0.31,-0.09 0.451,-0.03 0.359,0.29 0.759,0.55 1.179,0.77 0.021,0.07 0.021,0.13 0,0.2 l -0.12,1.97 c -0.05,0.22 0.08,0.44 0.311,0.5 l 1.92,0.47 c 0.219,0.05 0.45,-0.08 0.5,-0.31 L -0.31,9.75 C -0.27,9.59 -0.149,9.47 -0.01,9.41 0.46,9.36 0.931,9.26 1.37,9.12 1.431,9.16 1.48,9.2 1.511,9.26 l 1.309,1.48 c 0.12,0.19 0.37,0.25 0.571,0.13 L 5.08,9.85 C 5.28,9.73 5.341,9.47 5.221,9.28 L 4.521,7.44 C 4.431,7.3 4.431,7.13 4.49,6.99 4.78,6.63 5.04,6.23 5.261,5.81 5.33,5.79 5.391,5.79 5.46,5.81 L 7.421,5.93 C 7.65,5.98 7.87,5.85 7.931,5.63 L 8.4,3.7 C 8.45,3.48 8.311,3.25 8.091,3.2 L 6.29,2.4 C 6.141,2.36 6.021,2.24 5.96,2.1 5.91,1.63 5.811,1.16 5.671,0.72 5.7,0.66 5.75,0.62 5.811,0.58 L 7.28,-0.73 C 7.48,-0.85 7.54,-1.1 7.421,-1.3 L 6.391,-2.99 C 6.28,-3.19 6.021,-3.25 5.82,-3.13 l -1.83,0.7 C 3.851,-2.34 3.681,-2.34 3.54,-2.4 3.181,-2.69 2.78,-2.95 2.351,-3.17 2.341,-3.23 2.341,-3.3 2.36,-3.37 L 2.48,-5.33 C 2.53,-5.56 2.4,-5.78 2.171,-5.83 L 0.25,-6.31 C 0.021,-6.36 -0.199,-6.22 -0.25,-6 l -0.81,1.8 c -0.04,0.15 -0.15,0.27 -0.29,0.33 -0.469,0.05 -0.94,0.15 -1.379,0.29 -0.061,-0.03 -0.111,-0.08 -0.14,-0.14 L -4.18,-5.19 c -0.12,-0.2 -0.37,-0.26 -0.57,-0.14 l -1.689,1.03 c -0.201,0.12 -0.26,0.37 -0.14,0.57 l 0.699,1.83 c 0.08,0.14 0.09,0.31 0.03,0.45 -0.29,0.36 -0.549,0.76 -0.769,1.19 -0.07,0.01 -0.131,0.01 -0.2,-0.01 z"
                 style="fill:#00607f;fill-opacity:1;fill-rule:nonzero;stroke:none"
                 id="path1522" />
            </g>
          </g>
        </g>
      </g>
      <g
         id="g1530"
         transform="translate(632.1104,301.5801)">
        <path
           d="M 0,0 0.17,3.78 C 0.149,3.91 0.17,4.04 0.199,4.16 1.06,4.49 1.87,4.9 2.63,5.39 2.909,5.48 3.22,5.43 3.47,5.24 L 6.84,3.52 C 7.189,3.25 7.689,3.32 7.949,3.67 L 10.27,6.7 c 0.259,0.35 0.2,0.85 -0.15,1.11 l -2.551,2.8 c -0.109,0.08 -0.189,0.18 -0.25,0.29 0.37,0.83 0.651,1.69 0.84,2.59 0.141,0.26 0.401,0.45 0.711,0.49 l 3.59,1.16 c 0.439,0.06 0.75,0.46 0.689,0.9 l -0.509,3.77 c -0.06,0.44 -0.46,0.74 -0.89,0.69 l -3.78,0.17 c -0.13,-0.02 -0.26,0 -0.38,0.03 -0.33,0.86 -0.74,1.67 -1.24,2.43 -0.08,0.28 -0.031,0.59 0.15,0.84 l 1.729,3.37 c 0.26,0.35 0.201,0.85 -0.149,1.11 L 5.05,30.77 C 4.699,31.03 4.199,30.97 3.93,30.62 L 1.14,28.07 c -0.08,-0.1 -0.18,-0.19 -0.29,-0.25 -0.83,0.37 -1.691,0.65 -2.59,0.84 -0.26,0.14 -0.45,0.4 -0.49,0.71 l -1.161,3.59 c -0.059,0.44 -0.46,0.75 -0.899,0.69 L -8.07,33.14 C -8.5,33.08 -8.811,32.68 -8.75,32.25 l -0.17,-3.78 c 0.01,-0.13 0,-0.26 -0.04,-0.38 -0.851,-0.33 -1.67,-0.74 -2.42,-1.24 -0.28,-0.08 -0.6,-0.03 -0.841,0.15 l -3.37,1.73 c -0.349,0.26 -0.849,0.2 -1.119,-0.15 l -2.311,-3.03 c -0.269,-0.35 -0.2,-0.85 0.151,-1.12 l 2.55,-2.79 c 0.099,-0.08 0.179,-0.18 0.25,-0.29 -0.37,-0.83 -0.66,-1.69 -0.84,-2.59 -0.151,-0.26 -0.401,-0.45 -0.71,-0.49 l -3.601,-1.16 c -0.429,-0.06 -0.739,-0.46 -0.679,-0.9 l 0.509,-3.78 c 0.05,-0.43 0.451,-0.74 0.891,-0.68 l 3.779,-0.17 c 0.13,0.01 0.261,0 0.38,-0.03 0.33,-0.86 0.74,-1.67 1.231,-2.43 0.089,-0.28 0.04,-0.6 -0.151,-0.84 L -16.98,4.91 c -0.27,-0.35 -0.201,-0.85 0.15,-1.12 l 3.029,-2.31 c 0.351,-0.27 0.851,-0.2 1.111,0.15 l 2.799,2.55 c 0.08,0.1 0.181,0.18 0.29,0.25 0.83,-0.37 1.691,-0.66 2.59,-0.84 0.261,-0.15 0.45,-0.4 0.49,-0.71 l 1.161,-3.6 c 0.059,-0.43 0.46,-0.74 0.9,-0.68 l 3.77,0.51 C -0.25,-0.84 0.05,-0.44 0,0 Z"
           style="fill:none;stroke:#141414;stroke-width:2;stroke-linecap:round;stroke-linejoin:round;stroke-miterlimit:10;stroke-dasharray:none;stroke-opacity:1"
           id="path1532" />
      </g>
      <g
         id="g1534"
         transform="translate(622.3096,316.98)">
        <path
           d="m 0,0 c -0.399,2.99 1.7,5.75 4.7,6.15 2.99,0.4 5.75,-1.7 6.151,-4.7 C 11.25,-1.55 9.15,-4.3 6.15,-4.7 3.15,-5.1 0.4,-3 0,0 Z"
           style="fill:none;stroke:#141414;stroke-width:2;stroke-linecap:round;stroke-linejoin:round;stroke-miterlimit:10;stroke-dasharray:none;stroke-opacity:1"
           id="path1536" />
      </g>
      <g
         id="g1538"
         transform="translate(597.6602,336.6499)">
        <path
           d="m 0,0 2.78,0.16 c 0.09,0.03 0.19,0.03 0.28,0.01 0.31,-0.6 0.669,-1.16 1.089,-1.68 0.091,-0.2 0.08,-0.43 -0.04,-0.63 l -1,-2.6 C 2.95,-5.02 3.03,-5.38 3.31,-5.54 L 5.71,-7 c 0.28,-0.17 0.64,-0.08 0.81,0.2 l 1.839,2.08 c 0.051,0.09 0.12,0.15 0.201,0.21 0.629,-0.21 1.29,-0.35 1.96,-0.42 0.2,-0.08 0.36,-0.25 0.41,-0.47 l 1.14,-2.55 c 0.07,-0.31 0.39,-0.5 0.71,-0.43 l 2.72,0.67 c 0.32,0.08 0.51,0.39 0.43,0.71 l -0.17,2.78 c -0.02,0.09 -0.02,0.19 0,0.28 0.599,0.31 1.16,0.68 1.67,1.1 0.2,0.08 0.44,0.07 0.64,-0.05 l 2.6,-0.99 c 0.269,-0.17 0.63,-0.08 0.8,0.19 l 1.46,2.4 c 0.16,0.28 0.08,0.64 -0.201,0.81 l -2.08,1.84 c -0.089,0.05 -0.159,0.12 -0.21,0.2 0.21,0.63 0.341,1.29 0.411,1.96 0.089,0.2 0.259,0.36 0.48,0.41 l 2.54,1.14 c 0.319,0.07 0.51,0.39 0.43,0.71 L 23.64,8.5 c -0.08,0.32 -0.4,0.51 -0.71,0.43 L 20.149,8.76 c -0.099,-0.02 -0.189,-0.02 -0.279,0 -0.31,0.6 -0.681,1.16 -1.1,1.67 -0.081,0.21 -0.07,0.44 0.05,0.64 l 0.99,2.6 c 0.169,0.27 0.08,0.63 -0.201,0.8 l -2.389,1.46 c -0.281,0.17 -0.64,0.08 -0.81,-0.2 l -1.85,-2.08 c -0.05,-0.09 -0.11,-0.16 -0.19,-0.21 -0.63,0.21 -1.29,0.35 -1.96,0.41 -0.2,0.09 -0.36,0.26 -0.42,0.48 l -1.131,2.54 c -0.079,0.32 -0.389,0.51 -0.71,0.43 L 7.43,16.64 C 7.109,16.56 6.92,16.24 6.99,15.93 L 7.16,13.15 C 7.189,13.05 7.189,12.96 7.17,12.87 6.57,12.56 6.01,12.19 5.49,11.77 5.29,11.69 5.06,11.7 4.859,11.82 L 2.26,12.81 C 1.979,12.98 1.62,12.89 1.46,12.62 L 0,10.22 C -0.17,9.94 -0.08,9.58 0.2,9.41 L 2.28,7.57 C 2.359,7.51 2.43,7.45 2.49,7.37 2.28,6.74 2.14,6.08 2.07,5.41 1.99,5.21 1.82,5.05 1.6,4.99 L -0.95,3.86 C -1.26,3.78 -1.45,3.47 -1.38,3.15 L -0.71,0.43 C -0.63,0.11 -0.32,-0.08 0,0 Z"
           style="fill:none;stroke:#141414;stroke-width:2;stroke-linecap:round;stroke-linejoin:round;stroke-miterlimit:10;stroke-dasharray:none;stroke-opacity:1"
           id="path1540" />
      </g>
      <g
         id="g1542"
         transform="translate(608.1602,345.0298)">
        <path
           d="M 0,0 C 2.17,0.53 4.35,-0.79 4.88,-2.96 5.41,-5.12 4.08,-7.3 1.92,-7.83 -0.24,-8.36 -2.42,-7.04 -2.95,-4.87 -3.48,-2.71 -2.16,-0.53 0,0 Z"
           style="fill:none;stroke:#141414;stroke-width:2;stroke-linecap:round;stroke-linejoin:round;stroke-miterlimit:10;stroke-dasharray:none;stroke-opacity:1"
           id="path1544" />
      </g>
      <g
         id="g1546"
         transform="translate(591.7695,317.1001)">
        <path
           d="M 0,0 1.971,0.12 C 2.04,0.14 2.101,0.14 2.171,0.13 2.391,-0.3 2.65,-0.7 2.94,-1.06 3,-1.2 2.99,-1.37 2.91,-1.51 L 2.211,-3.34 C 2.091,-3.54 2.15,-3.79 2.351,-3.91 L 4.04,-4.94 C 4.24,-5.06 4.49,-5 4.61,-4.8 l 1.311,1.47 C 5.95,-3.27 6,-3.22 6.061,-3.19 6.5,-3.33 6.971,-3.43 7.44,-3.48 7.58,-3.54 7.69,-3.66 7.73,-3.81 l 0.81,-1.8 c 0.051,-0.22 0.271,-0.36 0.5,-0.31 l 1.921,0.48 c 0.229,0.05 0.359,0.27 0.31,0.5 l -0.121,1.96 c -0.019,0.07 -0.019,0.14 -0.009,0.2 0.429,0.22 0.83,0.48 1.189,0.77 0.141,0.06 0.311,0.06 0.45,-0.03 l 1.83,-0.7 c 0.201,-0.12 0.46,-0.06 0.571,0.14 l 1.03,1.69 c 0.119,0.2 0.06,0.45 -0.141,0.57 l -1.469,1.31 c -0.061,0.04 -0.111,0.08 -0.14,0.14 0.14,0.44 0.239,0.91 0.289,1.38 0.061,0.14 0.181,0.26 0.33,0.3 l 1.801,0.8 c 0.22,0.05 0.359,0.28 0.309,0.5 L 16.721,6.02 C 16.66,6.24 16.44,6.37 16.211,6.32 L 14.25,6.2 C 14.181,6.18 14.12,6.18 14.051,6.2 13.83,6.62 13.57,7.02 13.28,7.38 13.221,7.52 13.221,7.69 13.311,7.83 l 0.7,1.84 c 0.12,0.19 0.059,0.45 -0.141,0.57 l -1.689,1.02 C 11.98,11.38 11.73,11.32 11.61,11.13 L 10.301,9.65 C 10.271,9.59 10.221,9.55 10.16,9.51 9.721,9.65 9.25,9.75 8.78,9.8 8.641,9.86 8.521,9.98 8.48,10.14 l -0.799,1.79 c -0.05,0.23 -0.281,0.36 -0.5,0.31 L 5.261,11.77 C 5.03,11.71 4.9,11.49 4.95,11.27 L 5.07,9.3 C 5.091,9.23 5.091,9.17 5.07,9.1 4.65,8.88 4.25,8.62 3.891,8.33 3.75,8.27 3.58,8.28 3.44,8.36 L 1.601,9.06 C 1.41,9.18 1.15,9.12 1.03,8.92 L 0.011,7.23 C -0.109,7.03 -0.05,6.78 0.15,6.66 L 1.62,5.35 C 1.681,5.32 1.73,5.27 1.761,5.22 1.62,4.77 1.521,4.3 1.471,3.83 1.41,3.69 1.29,3.58 1.131,3.54 L -0.659,2.73 C -0.89,2.68 -1.02,2.46 -0.97,2.23 L -0.5,0.31 C -0.439,0.08 -0.22,-0.05 0,0 Z"
           style="fill:none;stroke:#141414;stroke-width:2;stroke-linecap:round;stroke-linejoin:round;stroke-miterlimit:10;stroke-dasharray:none;stroke-opacity:1"
           id="path1548" />
      </g>
      <g
         id="g1550"
         transform="translate(599.2002,323.0298)">
        <path
           d="M 0,0 C 1.53,0.37 3.069,-0.56 3.45,-2.09 3.819,-3.62 2.89,-5.16 1.359,-5.54 -0.17,-5.91 -1.72,-4.98 -2.09,-3.45 -2.46,-1.92 -1.53,-0.37 0,0 Z"
           style="fill:none;stroke:#141414;stroke-width:2;stroke-linecap:round;stroke-linejoin:round;stroke-miterlimit:10;stroke-dasharray:none;stroke-opacity:1"
           id="path1552" />
      </g>
    </g>
  </g>
</svg>
