<?xml version="1.0" ?><svg viewBox="0 0 64 64" xmlns="http://www.w3.org/2000/svg"><defs><style>.cls-1{fill:#f2f2fc;}.cls-2{fill:#2c3b73;}.cls-3{fill:#4bb9ec;}.cls-4{fill:#fdbf00;}</style></defs><title/><g id="calendar"><path class="cls-1" d="M31,46A15,15,0,0,1,55,34V15.286H5V55H34A14.93,14.93,0,0,1,31,46ZM43,20a1,1,0,0,1,1-1h8a1,1,0,0,1,1,1v8a1,1,0,0,1-1,1H44a1,1,0,0,1-1-1ZM17,52a1,1,0,0,1-1,1H8a1,1,0,0,1-1-1V44a1,1,0,0,1,1-1h8a1,1,0,0,1,1,1Zm0-12a1,1,0,0,1-1,1H8a1,1,0,0,1-1-1V32a1,1,0,0,1,1-1h8a1,1,0,0,1,1,1Zm0-12a1,1,0,0,1-1,1H8a1,1,0,0,1-1-1V20a1,1,0,0,1,1-1h8a1,1,0,0,1,1,1ZM28.97,52a1,1,0,0,1-1,1h-8a1,1,0,0,1-1-1V44a1,1,0,0,1,1-1h8a1,1,0,0,1,1,1Zm0-12a1,1,0,0,1-1,1h-8a1,1,0,0,1-1-1V32a1,1,0,0,1,1-1h8a1,1,0,0,1,1,1Zm0-12a1,1,0,0,1-1,1h-8a1,1,0,0,1-1-1V20a1,1,0,0,1,1-1h8a1,1,0,0,1,1,1Zm1.969-8a1,1,0,0,1,1-1h8a1,1,0,0,1,1,1v8a1,1,0,0,1-1,1h-8a1,1,0,0,1-1-1Z"/><path class="cls-2" d="M55,8.429H51V11a1,1,0,0,1-2,0V8.429H42.939V11a1,1,0,0,1-2,0V8.429h-6V11a1,1,0,0,1-2,0V8.429H26.97V11a1,1,0,0,1-2,0V8.429h-6V11a1,1,0,0,1-2,0V8.429H11V11a1,1,0,0,1-2,0V8.429H5v4.857H55Z"/><rect class="cls-3" height="6" width="6" x="9" y="21"/><path d="M16,19H8a1,1,0,0,0-1,1v8a1,1,0,0,0,1,1h8a1,1,0,0,0,1-1V20A1,1,0,0,0,16,19Zm-1,8H9V21h6Z"/><rect class="cls-3" height="6" width="6" x="9" y="33"/><path d="M16,31H8a1,1,0,0,0-1,1v8a1,1,0,0,0,1,1h8a1,1,0,0,0,1-1V32A1,1,0,0,0,16,31Zm-1,8H9V33h6Z"/><rect class="cls-3" height="6" width="6" x="9" y="45"/><path d="M16,43H8a1,1,0,0,0-1,1v8a1,1,0,0,0,1,1h8a1,1,0,0,0,1-1V44A1,1,0,0,0,16,43Zm-1,8H9V45h6Z"/><rect class="cls-3" height="6" width="6" x="20.97" y="21"/><path d="M27.97,19h-8a1,1,0,0,0-1,1v8a1,1,0,0,0,1,1h8a1,1,0,0,0,1-1V20A1,1,0,0,0,27.97,19Zm-1,8h-6V21h6Z"/><rect class="cls-3" height="6" width="6" x="20.97" y="33"/><path d="M27.97,31h-8a1,1,0,0,0-1,1v8a1,1,0,0,0,1,1h8a1,1,0,0,0,1-1V32A1,1,0,0,0,27.97,31Zm-1,8h-6V33h6Z"/><rect class="cls-3" height="6" width="6" x="20.97" y="45"/><path d="M27.97,43h-8a1,1,0,0,0-1,1v8a1,1,0,0,0,1,1h8a1,1,0,0,0,1-1V44A1,1,0,0,0,27.97,43Zm-1,8h-6V45h6Z"/><rect class="cls-3" height="6" width="6" x="32.939" y="21"/><path d="M31.939,29h8a1,1,0,0,0,1-1V20a1,1,0,0,0-1-1h-8a1,1,0,0,0-1,1v8A1,1,0,0,0,31.939,29Zm1-8h6v6h-6Z"/><rect class="cls-3" height="6" width="6" x="45" y="21"/><path d="M44,29h8a1,1,0,0,0,1-1V20a1,1,0,0,0-1-1H44a1,1,0,0,0-1,1v8A1,1,0,0,0,44,29Zm1-8h6v6H45Z"/><circle class="cls-4" cx="50.762" cy="50.762" r="1.381"/><path class="cls-4" d="M46,33A13,13,0,1,0,59,46,13.006,13.006,0,0,0,46,33Zm-4.762,4.857a3.381,3.381,0,1,1-3.381,3.381A3.383,3.383,0,0,1,41.238,37.857ZM42.07,53.7a1,1,0,0,1-1.664-1.11L49.93,38.3a1,1,0,1,1,1.664,1.11Zm8.692.445a3.381,3.381,0,1,1,3.381-3.381A3.383,3.383,0,0,1,50.762,54.143Z"/><circle class="cls-4" cx="41.238" cy="41.238" r="1.381"/><path d="M57,35.806V7.429a1,1,0,0,0-1-1H51V4a1,1,0,0,0-2,0V6.429H42.939V4a1,1,0,0,0-2,0V6.429h-6V4a1,1,0,0,0-2,0V6.429H26.97V4a1,1,0,0,0-2,0V6.429h-6V4a1,1,0,0,0-2,0V6.429H11V4A1,1,0,0,0,9,4V6.429H4a1,1,0,0,0-1,1V56a1,1,0,0,0,1,1H35.806A15,15,0,0,0,57,35.806ZM46,59A13,13,0,1,1,59,46,13.006,13.006,0,0,1,46,59ZM5,8.429H9V11a1,1,0,0,0,2,0V8.429h5.97V11a1,1,0,0,0,2,0V8.429h6V11a1,1,0,0,0,2,0V8.429h5.969V11a1,1,0,0,0,2,0V8.429h6V11a1,1,0,0,0,2,0V8.429H49V11a1,1,0,0,0,2,0V8.429h4v4.857H5Zm0,6.857H55V34A15,15,0,0,0,34,55H5Z"/><path d="M41.238,44.619a3.381,3.381,0,1,0-3.381-3.381A3.383,3.383,0,0,0,41.238,44.619Zm0-4.762a1.381,1.381,0,1,1-1.381,1.381A1.382,1.382,0,0,1,41.238,39.857Z"/><path d="M50.762,47.381a3.381,3.381,0,1,0,3.381,3.381A3.383,3.383,0,0,0,50.762,47.381Zm0,4.762a1.381,1.381,0,1,1,1.381-1.381A1.382,1.382,0,0,1,50.762,52.143Z"/><path d="M51.594,39.412A1,1,0,1,0,49.93,38.3L40.406,52.588A1,1,0,0,0,42.07,53.7Z"/></g></svg>