<?xml version="1.0" encoding="UTF-8" standalone="no"?>
<!-- Created with Inkscape (http://www.inkscape.org/) -->

<svg
   xmlns:dc="http://purl.org/dc/elements/1.1/"
   xmlns:cc="http://creativecommons.org/ns#"
   xmlns:rdf="http://www.w3.org/1999/02/22-rdf-syntax-ns#"
   xmlns:svg="http://www.w3.org/2000/svg"
   xmlns="http://www.w3.org/2000/svg"
   xmlns:sodipodi="http://sodipodi.sourceforge.net/DTD/sodipodi-0.dtd"
   xmlns:inkscape="http://www.inkscape.org/namespaces/inkscape"
   width="48pt"
   height="48pt"
   viewBox="0 0 16.933334 16.933333"
   version="1.1"
   id="svg979"
   inkscape:version="0.92.4 (5da689c313, 2019-01-14)"
   sodipodi:docname="10 - Money Bag.svg"
   inkscape:export-filename="E:\TR Design Studio Creative\Project Design\TR Creative Design\Icon Design\Project Hiring\Icon Icons\003 - Business And Finance\Send\3 - Flat\9 - Business Target.png"
   inkscape:export-xdpi="768"
   inkscape:export-ydpi="768">
  <defs
     id="defs973" />
  <sodipodi:namedview
     id="base"
     pagecolor="#ffffff"
     bordercolor="#666666"
     borderopacity="1.0"
     inkscape:pageopacity="0.0"
     inkscape:pageshadow="2"
     inkscape:zoom="9.6529501"
     inkscape:cx="32"
     inkscape:cy="31.999999"
     inkscape:document-units="pt"
     inkscape:current-layer="layer1"
     showgrid="false"
     units="pt"
     inkscape:window-width="1366"
     inkscape:window-height="716"
     inkscape:window-x="-8"
     inkscape:window-y="-8"
     inkscape:window-maximized="1"
     inkscape:snap-bbox="true"
     inkscape:bbox-nodes="true"
     inkscape:snap-nodes="false"
     showguides="false">
    <inkscape:grid
       type="xygrid"
       id="grid1526" />
    <sodipodi:guide
       position="0.97013909,15.963209"
       orientation="56.666615,0"
       id="guide1528"
       inkscape:locked="false" />
    <sodipodi:guide
       position="0.97013909,0.97016731"
       orientation="0,56.666667"
       id="guide1530"
       inkscape:locked="false" />
    <sodipodi:guide
       position="15.963195,0.97016731"
       orientation="-56.666615,0"
       id="guide1532"
       inkscape:locked="false" />
    <sodipodi:guide
       position="15.963195,15.963209"
       orientation="0,-56.666667"
       id="guide1534"
       inkscape:locked="false" />
  </sodipodi:namedview>
  <metadata
     id="metadata976">
    <rdf:RDF>
      <cc:Work
         rdf:about="">
        <dc:format>image/svg+xml</dc:format>
        <dc:type
           rdf:resource="http://purl.org/dc/dcmitype/StillImage" />
        <dc:title></dc:title>
      </cc:Work>
    </rdf:RDF>
  </metadata>
  <g
     inkscape:label="Layer 1"
     inkscape:groupmode="layer"
     id="layer1"
     transform="translate(0,-280.06668)">
    <g
       style="display:inline;stroke-width:0.82158971"
       transform="matrix(1.2171526,0,0,1.2171526,0.7377476,-65.232051)"
       id="g1262">
      <path
         style="color:#000000;font-style:normal;font-variant:normal;font-weight:normal;font-stretch:normal;font-size:medium;line-height:normal;font-family:sans-serif;font-variant-ligatures:normal;font-variant-position:normal;font-variant-caps:normal;font-variant-numeric:normal;font-variant-alternates:normal;font-feature-settings:normal;text-indent:0;text-align:start;text-decoration:none;text-decoration-line:none;text-decoration-style:solid;text-decoration-color:#000000;letter-spacing:normal;word-spacing:normal;text-transform:none;writing-mode:lr-tb;direction:ltr;text-orientation:mixed;dominant-baseline:auto;baseline-shift:baseline;text-anchor:start;white-space:normal;shape-padding:0;clip-rule:nonzero;display:inline;overflow:visible;visibility:visible;isolation:auto;mix-blend-mode:normal;color-interpolation:sRGB;color-interpolation-filters:linearRGB;solid-color:#000000;solid-opacity:1;vector-effect:none;fill:#7cb342;fill-opacity:1;fill-rule:nonzero;stroke:none;stroke-width:0.43475816;stroke-linecap:round;stroke-linejoin:round;stroke-miterlimit:4;stroke-dasharray:none;stroke-dashoffset:0;stroke-opacity:1;color-rendering:auto;image-rendering:auto;shape-rendering:auto;text-rendering:auto;enable-background:accumulate"
         d="m 5.1526296,284.49266 c -0.197589,0.008 -0.3889855,0.0467 -0.546875,0.17578 -0.1578896,0.12911 -0.2371306,0.3494 -0.2246094,0.56836 0.025042,0.43791 0.2956109,0.96393 0.8613281,1.78125 0.3682429,0.53201 0.5332553,0.86017 0.8515625,1.43359 a 0.26460996,0.26460996 0 0 0 0.2304688,0.13672 h 1.3242187 a 0.26460996,0.26460996 0 0 0 0.1464844,-0.0449 c 0.2727979,-0.18187 1.0339047,-0.78604 1.6601562,-1.49805 0.3131258,-0.356 0.5890371,-0.73264 0.7363281,-1.11719 0.147292,-0.38454 0.14607,-0.83439 -0.162109,-1.14257 -0.170955,-0.17096 -0.4107599,-0.18581 -0.6074222,-0.1543 -0.1966623,0.0315 -0.3882877,0.10509 -0.5761719,0.18164 -0.1878841,0.0765 -0.3708351,0.15632 -0.5234375,0.20898 -0.1526024,0.0527 -0.2759703,0.0651 -0.2988281,0.0605 -0.4629641,-0.0926 -0.9953269,-0.24387 -1.5,-0.37109 -0.5046731,-0.12723 -0.9759159,-0.2354 -1.3710937,-0.21875 z"
         id="path1438"
         inkscape:connector-curvature="0" />
      <path
         style="color:#000000;font-style:normal;font-variant:normal;font-weight:normal;font-stretch:normal;font-size:medium;line-height:normal;font-family:sans-serif;font-variant-ligatures:normal;font-variant-position:normal;font-variant-caps:normal;font-variant-numeric:normal;font-variant-alternates:normal;font-feature-settings:normal;text-indent:0;text-align:start;text-decoration:none;text-decoration-line:none;text-decoration-style:solid;text-decoration-color:#000000;letter-spacing:normal;word-spacing:normal;text-transform:none;writing-mode:lr-tb;direction:ltr;text-orientation:mixed;dominant-baseline:auto;baseline-shift:baseline;text-anchor:start;white-space:normal;shape-padding:0;clip-rule:nonzero;display:inline;overflow:visible;visibility:visible;isolation:auto;mix-blend-mode:normal;color-interpolation:sRGB;color-interpolation-filters:linearRGB;solid-color:#000000;solid-opacity:1;vector-effect:none;fill:#7cb342;fill-opacity:1;fill-rule:nonzero;stroke:none;stroke-width:0.43475816;stroke-linecap:round;stroke-linejoin:round;stroke-miterlimit:4;stroke-dasharray:none;stroke-dashoffset:0;stroke-opacity:1;color-rendering:auto;image-rendering:auto;shape-rendering:auto;text-rendering:auto;enable-background:accumulate"
         d="m 6.9612233,289.11766 -0.7714844,0.002 a 0.26460996,0.26460996 0 0 0 -0.1054687,0.0215 c -1.0280684,0.44885 -2.2469246,1.30174 -2.6796875,2.54297 a 0.26460996,0.26460996 0 0 0 -0.00977,0.14063 l 0.9882813,4.7539 a 0.26460996,0.26460996 0 0 0 0.2597656,0.21094 c 0,0 1.1680391,-0.005 2.3378907,0 a 0.26460996,0.26460996 0 0 0 0.00781,0 c 1.515788,-0.0402 2.6144114,-0.60541 3.2265627,-1.50976 0.612151,-0.90435 0.727873,-2.11043 0.404297,-3.39453 a 0.26460996,0.26460996 0 0 0 0,-0.004 c -0.36088,-1.34682 -1.6584631,-2.26793 -2.7402347,-2.74024 a 0.26460996,0.26460996 0 0 0 -0.1054687,-0.0215 l -0.7714844,-0.002 h -0.039063 a 0.2645835,0.2645835 0 0 0 -0.00195,0 z"
         id="path1403"
         inkscape:connector-curvature="0" />
      <path
         id="path1473"
         style="color:#000000;font-style:normal;font-variant:normal;font-weight:normal;font-stretch:normal;font-size:medium;line-height:normal;font-family:sans-serif;font-variant-ligatures:normal;font-variant-position:normal;font-variant-caps:normal;font-variant-numeric:normal;font-variant-alternates:normal;font-feature-settings:normal;text-indent:0;text-align:start;text-decoration:none;text-decoration-line:none;text-decoration-style:solid;text-decoration-color:#000000;letter-spacing:normal;word-spacing:normal;text-transform:none;writing-mode:lr-tb;direction:ltr;text-orientation:mixed;dominant-baseline:auto;baseline-shift:baseline;text-anchor:start;white-space:normal;shape-padding:0;clip-rule:nonzero;display:inline;overflow:visible;visibility:visible;isolation:auto;mix-blend-mode:normal;color-interpolation:sRGB;color-interpolation-filters:linearRGB;solid-color:#000000;solid-opacity:1;vector-effect:none;fill:#699938;fill-opacity:1;fill-rule:nonzero;stroke:none;stroke-width:0.43475816;stroke-linecap:round;stroke-linejoin:round;stroke-miterlimit:4;stroke-dasharray:none;stroke-dashoffset:0;stroke-opacity:1;color-rendering:auto;image-rendering:auto;shape-rendering:auto;text-rendering:auto;enable-background:accumulate"
         d="m 6.9611006,289.11775 -0.7715289,0.002 a 0.26460995,0.26460995 0 0 0 -0.1054198,0.0212 c -0.7006042,0.30588 -1.4891115,0.8002 -2.0577556,1.47639 0.4794303,-0.41034 1.0263196,-0.72794 1.528589,-0.94723 a 0.26460995,0.26460995 0 0 1 0.1054197,-0.0212 l 0.7715289,-0.002 a 0.26458349,0.26458349 0 0 1 0.0021,0 h 0.03927 l 0.7710127,0.002 a 0.26460995,0.26460995 0 0 1 0.105936,0.0212 c 1.0817711,0.47231 2.3790035,1.39358 2.7398834,2.7404 a 0.26460995,0.26460995 0 0 1 0,0.004 c 0.323576,1.2841 0.208041,2.48976 -0.4041099,3.39411 -0.03646,0.0539 -0.07482,0.1067 -0.114722,0.15813 0.252901,-0.19876 0.4688859,-0.42876 0.6438889,-0.6873 0.612151,-0.90435 0.727685,-2.11001 0.404109,-3.39411 a 0.26460995,0.26460995 0 0 0 0,-0.004 c -0.360876,-1.34682 -1.6581086,-2.26809 -2.7398797,-2.7404 a 0.26460995,0.26460995 0 0 0 -0.105937,-0.0212 l -0.7710117,-0.002 h -0.03927 a 0.26458349,0.26458349 0 0 0 -0.0021,0 z"
         inkscape:connector-curvature="0" />
      <path
         id="path1424"
         style="color:#000000;font-style:normal;font-variant:normal;font-weight:normal;font-stretch:normal;font-size:medium;line-height:normal;font-family:sans-serif;font-variant-ligatures:normal;font-variant-position:normal;font-variant-caps:normal;font-variant-numeric:normal;font-variant-alternates:normal;font-feature-settings:normal;text-indent:0;text-align:start;text-decoration:none;text-decoration-line:none;text-decoration-style:solid;text-decoration-color:#000000;letter-spacing:normal;word-spacing:normal;text-transform:none;writing-mode:lr-tb;direction:ltr;text-orientation:mixed;dominant-baseline:auto;baseline-shift:baseline;text-anchor:start;white-space:normal;shape-padding:0;clip-rule:nonzero;display:inline;overflow:visible;visibility:visible;isolation:auto;mix-blend-mode:normal;color-interpolation:sRGB;color-interpolation-filters:linearRGB;solid-color:#000000;solid-opacity:1;vector-effect:none;fill:#3e2723;fill-opacity:1;fill-rule:nonzero;stroke:none;stroke-width:0.43475816;stroke-linecap:round;stroke-linejoin:round;stroke-miterlimit:4;stroke-dasharray:none;stroke-dashoffset:0;stroke-opacity:1;color-rendering:auto;image-rendering:auto;shape-rendering:auto;text-rendering:auto;enable-background:accumulate"
         d="m 6.3244475,288.0589 c -0.4351551,0 -0.7927165,0.35807 -0.7927165,0.79323 0,0.43516 0.3575555,0.79478 0.7927165,0.79478 H 7.119231 v 0.79324 a 0.26458349,0.26458349 0 0 0 0.2640666,0.26561 0.26458349,0.26458349 0 0 0 0.2656168,-0.26561 v -0.79324 h 0.021188 c 0.435161,0 0.7947835,-0.35962 0.7947837,-0.79478 0,-0.43516 -0.3596288,-0.79323 -0.7947837,-0.79323 z"
         inkscape:connector-curvature="0" />
      <path
         id="path1345"
         style="color:#000000;font-style:normal;font-variant:normal;font-weight:normal;font-stretch:normal;font-size:medium;line-height:normal;font-family:sans-serif;font-variant-ligatures:normal;font-variant-position:normal;font-variant-caps:normal;font-variant-numeric:normal;font-variant-alternates:normal;font-feature-settings:normal;text-indent:0;text-align:start;text-decoration:none;text-decoration-line:none;text-decoration-style:solid;text-decoration-color:#000000;letter-spacing:normal;word-spacing:normal;text-transform:none;writing-mode:lr-tb;direction:ltr;text-orientation:mixed;dominant-baseline:auto;baseline-shift:baseline;text-anchor:start;white-space:normal;shape-padding:0;clip-rule:nonzero;display:inline;overflow:visible;visibility:visible;isolation:auto;mix-blend-mode:normal;color-interpolation:sRGB;color-interpolation-filters:linearRGB;solid-color:#000000;solid-opacity:1;vector-effect:none;fill:#3e2723;fill-opacity:1;fill-rule:nonzero;stroke:none;stroke-width:0.43475816;stroke-linecap:round;stroke-linejoin:round;stroke-miterlimit:4;stroke-dasharray:none;stroke-dashoffset:0;stroke-opacity:1;color-rendering:auto;image-rendering:auto;shape-rendering:auto;text-rendering:auto;enable-background:accumulate"
         d="m 7.0060597,291.39874 a 0.26458349,0.26458349 0 0 0 -0.2635498,0.26562 v 0.0977 h -0.24598 a 0.26460995,0.26460995 0 0 0 -0.2656168,0.26562 v 0.99632 a 0.26460995,0.26460995 0 0 0 0.2656168,0.26562 h 0.7555095 v 0.58962 H 7.0060597 6.4965299 a 0.26458349,0.26458349 0 0 0 -0.2656168,0.26562 0.26458349,0.26458349 0 0 0 0.2656168,0.26407 h 0.24598 v 0.0992 a 0.26458349,0.26458349 0 0 0 0.2635498,0.26406 0.26458349,0.26458349 0 0 0 0.2656168,-0.26406 v -0.0992 H 7.516106 a 0.26460995,0.26460995 0 0 0 0.2656168,-0.26407 V 293.024 A 0.26460995,0.26460995 0 0 0 7.516106,292.76042 H 6.7600798 v -0.46871 H 7.0060597 7.516106 A 0.26458349,0.26458349 0 0 0 7.7817228,292.02765 0.26458349,0.26458349 0 0 0 7.516106,291.76203 H 7.2716765 v -0.0977 a 0.26458349,0.26458349 0 0 0 -0.2656168,-0.26562 z"
         inkscape:connector-curvature="0" />
      <path
         style="color:#000000;font-style:normal;font-variant:normal;font-weight:normal;font-stretch:normal;font-size:medium;line-height:normal;font-family:sans-serif;font-variant-ligatures:normal;font-variant-position:normal;font-variant-caps:normal;font-variant-numeric:normal;font-variant-alternates:normal;font-feature-settings:normal;text-indent:0;text-align:start;text-decoration:none;text-decoration-line:none;text-decoration-style:solid;text-decoration-color:#000000;letter-spacing:normal;word-spacing:normal;text-transform:none;writing-mode:lr-tb;direction:ltr;text-orientation:mixed;dominant-baseline:auto;baseline-shift:baseline;text-anchor:start;white-space:normal;shape-padding:0;clip-rule:nonzero;display:inline;overflow:visible;visibility:visible;isolation:auto;mix-blend-mode:normal;color-interpolation:sRGB;color-interpolation-filters:linearRGB;solid-color:#000000;solid-opacity:1;vector-effect:none;fill:#ffcd40;fill-opacity:1;fill-rule:nonzero;stroke:none;stroke-width:0.43475816;stroke-linecap:round;stroke-linejoin:round;stroke-miterlimit:4;stroke-dasharray:none;stroke-dashoffset:0;stroke-opacity:1;color-rendering:auto;image-rendering:auto;shape-rendering:auto;text-rendering:auto;enable-background:accumulate"
         d="m 3.6799733,291.49852 c -0.946831,0 -1.7207023,0.77192 -1.7207031,1.71875 8e-7,0.94683 0.7738721,1.7207 1.7207031,1.7207 0.946831,0 1.7187492,-0.77387 1.71875,-1.7207 -8e-7,-0.94683 -0.771919,-1.71875 -1.71875,-1.71875 z"
         id="path1387"
         inkscape:connector-curvature="0" />
      <path
         style="color:#000000;font-style:normal;font-variant:normal;font-weight:normal;font-stretch:normal;font-size:medium;line-height:normal;font-family:sans-serif;font-variant-ligatures:normal;font-variant-position:normal;font-variant-caps:normal;font-variant-numeric:normal;font-variant-alternates:normal;font-feature-settings:normal;text-indent:0;text-align:start;text-decoration:none;text-decoration-line:none;text-decoration-style:solid;text-decoration-color:#000000;letter-spacing:normal;word-spacing:normal;text-transform:none;writing-mode:lr-tb;direction:ltr;text-orientation:mixed;dominant-baseline:auto;baseline-shift:baseline;text-anchor:start;white-space:normal;shape-padding:0;clip-rule:nonzero;display:inline;overflow:visible;visibility:visible;isolation:auto;mix-blend-mode:normal;color-interpolation:sRGB;color-interpolation-filters:linearRGB;solid-color:#000000;solid-opacity:1;vector-effect:none;fill:#ffcd40;fill-opacity:1;fill-rule:nonzero;stroke:none;stroke-width:0.43475816;stroke-linecap:round;stroke-linejoin:round;stroke-miterlimit:4;stroke-dasharray:none;stroke-dashoffset:0;stroke-opacity:1;color-rendering:auto;image-rendering:auto;shape-rendering:auto;text-rendering:auto;enable-background:accumulate"
         d="m 2.6370046,295.34617 c -0.401076,0 -0.7324219,0.3294 -0.7324219,0.73047 0,0.40107 0.3313459,0.73242 0.7324219,0.73242 h 1.8691406 c 0.4010759,0 0.7324218,-0.33135 0.7324218,-0.73242 0,-0.40107 -0.3313459,-0.73047 -0.7324218,-0.73047 z"
         id="path1354"
         inkscape:connector-curvature="0" />
      <path
         id="path1449"
         style="color:#000000;font-style:normal;font-variant:normal;font-weight:normal;font-stretch:normal;font-size:medium;line-height:normal;font-family:sans-serif;font-variant-ligatures:normal;font-variant-position:normal;font-variant-caps:normal;font-variant-numeric:normal;font-variant-alternates:normal;font-feature-settings:normal;text-indent:0;text-align:start;text-decoration:none;text-decoration-line:none;text-decoration-style:solid;text-decoration-color:#000000;letter-spacing:normal;word-spacing:normal;text-transform:none;writing-mode:lr-tb;direction:ltr;text-orientation:mixed;dominant-baseline:auto;baseline-shift:baseline;text-anchor:start;white-space:normal;shape-padding:0;clip-rule:nonzero;display:inline;overflow:visible;visibility:visible;isolation:auto;mix-blend-mode:normal;color-interpolation:sRGB;color-interpolation-filters:linearRGB;solid-color:#000000;solid-opacity:1;vector-effect:none;fill:#f8a92d;fill-opacity:1;fill-rule:nonzero;stroke:none;stroke-width:0.43475816;stroke-linecap:round;stroke-linejoin:round;stroke-miterlimit:4;stroke-dasharray:none;stroke-dashoffset:0;stroke-opacity:1;color-rendering:auto;image-rendering:auto;shape-rendering:auto;text-rendering:auto;enable-background:accumulate"
         d="m 3.6801641,291.49849 c -0.6086594,0 -1.1449933,0.32005 -1.4510742,0.79943 0.2669956,-0.17035 0.5830718,-0.27027 0.9219076,-0.27027 0.946831,0 1.7187571,0.77193 1.7187582,1.71876 -3e-7,0.33888 -0.1003925,0.65489 -0.2707847,0.92191 0.4796814,-0.30602 0.7999505,-0.84219 0.7999513,-1.45108 -1e-6,-0.94682 -0.7719271,-1.71875 -1.7187582,-1.71875 z"
         inkscape:connector-curvature="0" />
      <path
         style="color:#000000;font-style:normal;font-variant:normal;font-weight:normal;font-stretch:normal;font-size:medium;line-height:normal;font-family:sans-serif;font-variant-ligatures:normal;font-variant-position:normal;font-variant-caps:normal;font-variant-numeric:normal;font-variant-alternates:normal;font-feature-settings:normal;text-indent:0;text-align:start;text-decoration:none;text-decoration-line:none;text-decoration-style:solid;text-decoration-color:#000000;letter-spacing:normal;word-spacing:normal;text-transform:none;writing-mode:lr-tb;direction:ltr;text-orientation:mixed;dominant-baseline:auto;baseline-shift:baseline;text-anchor:start;white-space:normal;shape-padding:0;clip-rule:nonzero;display:inline;overflow:visible;visibility:visible;isolation:auto;mix-blend-mode:normal;color-interpolation:sRGB;color-interpolation-filters:linearRGB;solid-color:#000000;solid-opacity:1;vector-effect:none;fill:#f8a92d;fill-opacity:1;fill-rule:nonzero;stroke:none;stroke-width:0.43475816;stroke-linecap:round;stroke-linejoin:round;stroke-miterlimit:4;stroke-dasharray:none;stroke-dashoffset:0;stroke-opacity:1;color-rendering:auto;image-rendering:auto;shape-rendering:auto;text-rendering:auto;enable-background:accumulate"
         d="m 2.6368173,295.34631 c -0.3649285,-0.007 -0.6980217,0.30012 -0.7255371,0.66303 0.7013168,-0.003 1.4026737,-0.01 2.1039653,-0.0108 0.2665002,0.008 0.5632908,0.13498 0.659437,0.40189 0.045028,0.12245 0.044018,0.25846 0.010071,0.38352 0.333759,-0.083 0.5819738,-0.41959 0.551839,-0.76385 -0.021844,-0.36905 -0.3609848,-0.68198 -0.730642,-0.67421 -0.6230446,1.4e-4 -1.2460891,2.7e-4 -1.8691337,4.1e-4 z"
         id="path1460"
         inkscape:connector-curvature="0" />
      <path
         style="color:#000000;font-style:normal;font-variant:normal;font-weight:normal;font-stretch:normal;font-size:medium;line-height:normal;font-family:sans-serif;font-variant-ligatures:normal;font-variant-position:normal;font-variant-caps:normal;font-variant-numeric:normal;font-variant-alternates:normal;font-feature-settings:normal;text-indent:0;text-align:start;text-decoration:none;text-decoration-line:none;text-decoration-style:solid;text-decoration-color:#000000;letter-spacing:normal;word-spacing:normal;text-transform:none;writing-mode:lr-tb;direction:ltr;text-orientation:mixed;dominant-baseline:auto;baseline-shift:baseline;text-anchor:start;white-space:normal;shape-padding:0;clip-rule:nonzero;display:inline;overflow:visible;visibility:visible;isolation:auto;mix-blend-mode:normal;color-interpolation:sRGB;color-interpolation-filters:linearRGB;solid-color:#000000;solid-opacity:1;vector-effect:none;fill:#ffcd40;fill-opacity:1;fill-rule:nonzero;stroke:none;stroke-width:0.43475816;stroke-linecap:round;stroke-linejoin:round;stroke-miterlimit:4;stroke-dasharray:none;stroke-dashoffset:0;stroke-opacity:1;color-rendering:auto;image-rendering:auto;shape-rendering:auto;text-rendering:auto;enable-background:accumulate"
         d="m 2.9280202,294.40867 c -0.401076,0 -0.7324219,0.33135 -0.7324219,0.73242 0,0.40108 0.3313528,0.73243 0.7324219,0.73243 h 1.8710937 c 0.4010691,0 0.7324219,-0.33135 0.7324219,-0.73243 0,-0.40107 -0.331346,-0.73242 -0.7324219,-0.73242 z"
         id="path1371"
         inkscape:connector-curvature="0" />
      <path
         id="path1455"
         style="color:#000000;font-style:normal;font-variant:normal;font-weight:normal;font-stretch:normal;font-size:medium;line-height:normal;font-family:sans-serif;font-variant-ligatures:normal;font-variant-position:normal;font-variant-caps:normal;font-variant-numeric:normal;font-variant-alternates:normal;font-feature-settings:normal;text-indent:0;text-align:start;text-decoration:none;text-decoration-line:none;text-decoration-style:solid;text-decoration-color:#000000;letter-spacing:normal;word-spacing:normal;text-transform:none;writing-mode:lr-tb;direction:ltr;text-orientation:mixed;dominant-baseline:auto;baseline-shift:baseline;text-anchor:start;white-space:normal;shape-padding:0;clip-rule:nonzero;display:inline;overflow:visible;visibility:visible;isolation:auto;mix-blend-mode:normal;color-interpolation:sRGB;color-interpolation-filters:linearRGB;solid-color:#000000;solid-opacity:1;vector-effect:none;fill:#f8a92d;fill-opacity:1;fill-rule:nonzero;stroke:none;stroke-width:0.43475816;stroke-linecap:round;stroke-linejoin:round;stroke-miterlimit:4;stroke-dasharray:none;stroke-dashoffset:0;stroke-opacity:1;color-rendering:auto;image-rendering:auto;shape-rendering:auto;text-rendering:auto;enable-background:accumulate"
         d="m 2.928272,294.4089 c -0.3394194,0 -0.6269857,0.23793 -0.707967,0.55397 0.057567,-0.0148 0.116959,-0.0248 0.1788004,-0.0248 h 1.8706869 c 0.4010758,0 0.7327718,0.33119 0.7327718,0.73226 0,0.0309 -0.00252,0.0611 -0.00689,0.0908 -0.00436,0.0297 -0.010564,0.0588 -0.017919,0.0875 0.1005607,-0.0259 0.1932525,-0.0726 0.2728893,-0.13523 0.1969161,-0.15639 0.2810801,-0.3232 0.2810801,-0.57223 0,-0.40107 -0.3316959,-0.73225 -0.7327717,-0.73225 z"
         inkscape:connector-curvature="0"
         sodipodi:nodetypes="ccssssccccc" />
      <path
         id="path1468"
         style="color:#000000;font-style:normal;font-variant:normal;font-weight:normal;font-stretch:normal;font-size:medium;line-height:normal;font-family:sans-serif;font-variant-ligatures:normal;font-variant-position:normal;font-variant-caps:normal;font-variant-numeric:normal;font-variant-alternates:normal;font-feature-settings:normal;text-indent:0;text-align:start;text-decoration:none;text-decoration-line:none;text-decoration-style:solid;text-decoration-color:#000000;letter-spacing:normal;word-spacing:normal;text-transform:none;writing-mode:lr-tb;direction:ltr;text-orientation:mixed;dominant-baseline:auto;baseline-shift:baseline;text-anchor:start;white-space:normal;shape-padding:0;clip-rule:nonzero;display:inline;overflow:visible;visibility:visible;isolation:auto;mix-blend-mode:normal;color-interpolation:sRGB;color-interpolation-filters:linearRGB;solid-color:#000000;solid-opacity:1;vector-effect:none;fill:#699938;fill-opacity:1;fill-rule:nonzero;stroke:none;stroke-width:0.43475816;stroke-linecap:round;stroke-linejoin:round;stroke-miterlimit:4;stroke-dasharray:none;stroke-dashoffset:0;stroke-opacity:1;color-rendering:auto;image-rendering:auto;shape-rendering:auto;text-rendering:auto;enable-background:accumulate"
         d="m 5.1524258,284.49269 c -0.197589,0.008 -0.388847,0.0466 -0.5467367,0.1757 -0.112876,0.0923 -0.183665,0.23174 -0.211357,0.38344 0.07451,-0.0165 0.150795,-0.0268 0.228927,-0.03 0.3951777,-0.0166 0.8668194,0.0914 1.3714921,0.21859 0.5046737,0.12722 1.0366864,0.27843 1.4996491,0.37103 0.02286,0.005 0.146605,-0.008 0.299207,-0.0605 0.1526027,-0.0527 0.3350807,-0.13227 0.5229647,-0.20877 0.1878847,-0.0765 0.3795297,-0.1504 0.5761917,-0.1819 0.1966627,-0.0315 0.4367597,-0.0164 0.6077144,0.15451 0.308179,0.30818 0.309556,0.75803 0.162264,1.14257 -0.147291,0.38455 -0.4232617,0.76124 -0.7363884,1.11724 -0.03886,0.0442 -0.07963,0.0864 -0.119373,0.12971 0.2169037,-0.2027 0.4384627,-0.42003 0.6485397,-0.65887 0.3131267,-0.356 0.5890976,-0.7327 0.7363886,-1.11725 0.147292,-0.38454 0.145915,-0.83439 -0.162264,-1.14257 -0.1709549,-0.17096 -0.4110519,-0.18602 -0.6077146,-0.15451 -0.196662,0.0315 -0.388307,0.10535 -0.5761917,0.1819 -0.187884,0.0765 -0.370363,0.15612 -0.5229657,0.20878 -0.152602,0.0527 -0.276348,0.0651 -0.299206,0.0605 -0.4629627,-0.0926 -0.9949754,-0.24382 -1.4996491,-0.37104 -0.5046727,-0.12723 -0.9763144,-0.23524 -1.3714921,-0.21859 z"
         inkscape:connector-curvature="0" />
      <path
         id="path1481"
         style="color:#000000;font-style:normal;font-variant:normal;font-weight:normal;font-stretch:normal;font-size:medium;line-height:normal;font-family:sans-serif;font-variant-ligatures:normal;font-variant-position:normal;font-variant-caps:normal;font-variant-numeric:normal;font-variant-alternates:normal;font-feature-settings:normal;text-indent:0;text-align:start;text-decoration:none;text-decoration-line:none;text-decoration-style:solid;text-decoration-color:#000000;letter-spacing:normal;word-spacing:normal;text-transform:none;writing-mode:lr-tb;direction:ltr;text-orientation:mixed;dominant-baseline:auto;baseline-shift:baseline;text-anchor:start;white-space:normal;shape-padding:0;clip-rule:nonzero;display:inline;overflow:visible;visibility:visible;isolation:auto;mix-blend-mode:normal;color-interpolation:sRGB;color-interpolation-filters:linearRGB;solid-color:#000000;solid-opacity:1;vector-effect:none;fill:#241615;fill-opacity:1;fill-rule:nonzero;stroke:none;stroke-width:0.43475816;stroke-linecap:round;stroke-linejoin:round;stroke-miterlimit:4;stroke-dasharray:none;stroke-dashoffset:0;stroke-opacity:1;color-rendering:auto;image-rendering:auto;shape-rendering:auto;text-rendering:auto;enable-background:accumulate"
         d="m 6.3244473,288.0589 c -0.3559373,0 -0.6566133,0.241 -0.7555095,0.56637 0.072247,-0.0219 0.147297,-0.0372 0.2263429,-0.0372 h 1.3456539 c 0.4351547,0 0.7947834,0.35808 0.7947834,0.79324 0,0.0795 -0.01546,0.15518 -0.03772,0.22789 0.325375,-0.0996 0.5668907,-0.40138 0.5668907,-0.75706 0,-0.43516 -0.3596287,-0.79323 -0.7947834,-0.79323 z"
         sodipodi:nodetypes="scssscsss"
         inkscape:connector-curvature="0" />
    </g>
  </g>
</svg>
