<?xml version="1.0" ?><svg viewBox="0 0 64 64" xmlns="http://www.w3.org/2000/svg"><defs><style>.cls-1{fill:#61729b;}.cls-2{fill:#4bb9ec;}.cls-3{fill:#f2f2fc;}.cls-4{fill:#ffcebf;}.cls-5{fill:#fdbf00;}.cls-6{fill:#f03800;}</style></defs><title/><g id="traffic"><path class="cls-1" d="M19.988,32.537a15.69,15.69,0,1,0,0-22.189A15.7,15.7,0,0,0,19.988,32.537Zm1.958-20.232a12.922,12.922,0,1,1,0,18.274A12.929,12.929,0,0,1,21.946,12.305Z"/><circle class="cls-2" cx="31.083" cy="21.443" r="10.922" transform="translate(-6.058 28.258) rotate(-44.998)"/><path d="M21.946,30.579a12.922,12.922,0,1,0,0-18.274A12.927,12.927,0,0,0,21.946,30.579ZM38.806,13.72a10.922,10.922,0,1,1-15.446,0A10.927,10.927,0,0,1,38.806,13.72Z"/><path class="cls-3" d="M19.117,34.472q-.276-.254-.543-.521c-.178-.178-.351-.359-.521-.543l-4.964,4.964,1.064,1.064Z"/><rect class="cls-1" height="5.011" transform="translate(-27.445 19.401) rotate(-45)" width="7.101" x="6.146" y="40.324"/><path d="M16.1,41.383l-.533-.532,5.1-5.1a17.693,17.693,0,1,0-3.892-3.893l-5.1,5.1-.532-.532a1,1,0,0,0-1.415,0L3.293,42.861a1,1,0,0,0,0,1.414L8.25,49.232a1,1,0,0,0,1.414,0L16.1,42.8A1,1,0,0,0,16.1,41.383Zm-5.665-2.836,3.543,3.543L8.957,47.111,5.414,43.568Zm31.743-28.2a15.69,15.69,0,1,1-22.19,0A15.7,15.7,0,0,1,42.178,10.348ZM18.053,33.408c.17.184.343.365.521.543s.359.352.543.521l-4.964,4.964-1.064-1.064Z"/><rect class="cls-4" height="8" width="6" x="17" y="50.244"/><path d="M24,48.244H16a1,1,0,0,0-1,1v10a1,1,0,0,0,1,1h8a1,1,0,0,0,1-1v-10A1,1,0,0,0,24,48.244Zm-1,10H17v-8h6Z"/><rect class="cls-2" height="12.143" width="6" x="29" y="46.101"/><path d="M36,44.1H28a1,1,0,0,0-1,1V59.244a1,1,0,0,0,1,1h8a1,1,0,0,0,1-1V45.1A1,1,0,0,0,36,44.1ZM35,58.244H29V46.1h6Z"/><rect class="cls-5" height="18.571" width="6" x="41" y="39.673"/><path d="M48,37.673H40a1,1,0,0,0-1,1V59.244a1,1,0,0,0,1,1h8a1,1,0,0,0,1-1V38.673A1,1,0,0,0,48,37.673ZM47,58.244H41V39.673h6Z"/><rect class="cls-6" height="24" width="6" x="53" y="34.244"/><path d="M60,32.244H52a1,1,0,0,0-1,1v26a1,1,0,0,0,1,1h8a1,1,0,0,0,1-1v-26A1,1,0,0,0,60,32.244Zm-1,26H53v-24h6Z"/></g></svg>